<svg width="314" height="298" viewBox="0 0 314 298" fill="none" xmlns="http://www.w3.org/2000/svg">
<path d="M235.306 128.747C265.267 128.747 289.556 104.459 289.556 74.4972C289.556 44.5358 265.267 20.2473 235.306 20.2473C205.344 20.2473 181.056 44.5358 181.056 74.4972C181.056 104.459 205.344 128.747 235.306 128.747Z" fill="#FD7247"/>
<path d="M173.905 0.259981C173.905 0.259981 145.926 63.8812 197.152 113.06C248.374 162.239 311.591 133.285 312.388 131.426C313.186 129.566 317.109 79.7946 274.639 37.1523C232.175 -5.49535 173.905 0.259981 173.905 0.259981Z" fill="#FD7247"/>
<path d="M77.7241 128.747C107.685 128.747 131.974 104.459 131.974 74.4972C131.974 44.5358 107.685 20.2473 77.7241 20.2473C47.7627 20.2473 23.4741 44.5358 23.4741 74.4972C23.4741 104.459 47.7627 128.747 77.7241 128.747Z" fill="#2D2D2D"/>
<path d="M139.125 0.259981C139.125 0.259981 167.104 63.8812 115.877 113.06C64.6559 162.239 1.43885 133.285 0.641292 131.426C-0.156264 129.566 -4.07936 79.7946 38.3905 37.1523C80.8549 -5.49535 139.125 0.259981 139.125 0.259981Z" fill="#2D2D2D"/>
<path d="M2.92756e-05 165.979C2.92756e-05 165.979 -0.52269 300.782 138.128 297.064C138.128 297.064 168.096 239.052 119.224 186.99C70.352 134.928 6.13797 162.498 2.92756e-05 165.979Z" fill="#2D2D2D"/>
<path d="M312.841 166.804C312.841 166.804 252.739 130.062 192.976 188.494C192.976 188.494 147.823 235.259 173.851 297.139C173.851 297.139 240.431 306.694 287.357 245.422C287.357 245.422 316.015 208.589 312.841 166.804Z" fill="#2D2D2D"/>
</svg>
