<svg version="1.2" xmlns="http://www.w3.org/2000/svg" viewBox="0 0 313 96" width="313" height="96">
	<title>Component 2 (1)</title>
	<style>
		.s0 { fill: #222124 } 
		.s1 { fill: #fc7146 } 
	</style>
	<path id="NUM2" class="s0" d="m292.8 63.9h19.9q0.1 0 0.2 0 0.1 0.1 0.1 0.1 0.1 0.1 0.1 0.2 0.1 0.1 0.1 0.2v5.6q0 0.1 0 0.2-0.1 0.1-0.1 0.2-0.1 0-0.2 0.1-0.1 0-0.2 0l-28.6 0.1q-0.1 0-0.2-0.1-0.1 0-0.2-0.1-0.1-0.1-0.2-0.2 0-0.1-0.1-0.2-1.3-8 4.1-13.7 3.6-3.9 9.1-7.5c4-2.7 10.2-7.5 7.6-13.1q-1.1-2.6-3.9-3.4-7.4-2.2-10.9 5.1-0.1 0.1-0.2 0.2-0.1 0.1-0.2 0.2-0.1 0.1-0.3 0.1-0.1 0-0.3 0l-6.5-1.3q-0.1 0-0.2-0.1-0.1 0-0.1-0.1-0.1-0.1-0.1-0.3 0-0.1 0-0.2 2.5-7.5 9.7-9.9c5.9-2 14.1-0.9 18.3 4q4.1 4.7 2.5 12 0 0.2 0 0.3 0 0.1-0.1 0.2 0 0.2-0.1 0.3 0 0.1-0.1 0.2-2.8 5.6-7.6 8.9c-4.6 3.2-10.1 6.8-11.7 11.5q0 0.1 0 0.2 0 0.1 0.1 0.2 0 0 0.1 0.1 0.1 0 0.2 0z"/>
	<path id="B" class="s0" d="m89.7 48.1q4.7 3.3 5.4 6.6c2.3 9.8-3.7 16-13.1 16.2q-8.3 0.2-17 0.1-0.1 0-0.2-0.1-0.2 0-0.2-0.1-0.1-0.1-0.2-0.2 0-0.1 0-0.3v-43.5q0-0.1 0-0.2 0.1-0.1 0.1-0.2 0.1-0.1 0.2-0.1 0.1 0 0.3 0 6-0.1 15.2 0c5.1 0 11.2 2.3 13.1 7.4q3 8.5-3.7 13.6-0.1 0.1-0.1 0.2-0.1 0.1-0.1 0.2 0 0.2 0.1 0.3 0.1 0.1 0.2 0.1zm-17.9-15.5l-0.1 12q0 0.1 0 0.1 0 0.1 0.1 0.2 0 0 0.1 0 0.1 0.1 0.2 0.1h7.5q1.4 0.1 2.7-0.4 1.3-0.4 2.3-1.3 0.9-0.8 1.5-1.9 0.5-1.1 0.5-2.3l0.1-0.6q0-1.2-0.6-2.4-0.5-1.1-1.4-1.9-1-0.9-2.3-1.4-1.3-0.4-2.6-0.4l-7.6-0.1q-0.1 0-0.2 0 0 0-0.1 0.1 0 0-0.1 0.1 0 0.1 0 0.1zm0 19l-0.1 12.4q0 0 0.1 0.1 0 0.1 0.1 0.1 0 0.1 0.1 0.1 0.1 0.1 0.2 0.1h8.1q1.6 0 3-0.5 1.4-0.5 2.5-1.3 1.1-0.9 1.7-2.1 0.6-1.1 0.6-2.4v-0.6q0-1.2-0.5-2.4-0.6-1.2-1.7-2-1.1-0.9-2.6-1.4-1.4-0.5-3-0.5h-8.1q-0.1 0-0.2 0 0 0-0.1 0.1-0.1 0-0.1 0.1 0 0.1 0 0.2z"/>
	<path id="L" fill-rule="evenodd" class="s0" d="m101.7 25.3h6.4c0.2 0 0.4 0.2 0.4 0.4v43.9c0 0.2-0.2 0.4-0.4 0.4h-6.4c-0.2 0-0.4-0.2-0.4-0.4v-43.9c0-0.2 0.2-0.4 0.4-0.4z"/>
	<path id="NUM4" class="s0" d="m242.8 55.1l19.8-29q0-0.1 0-0.1 0.1-0.1 0.1-0.1 0.1 0 0.1 0 0.1 0 0.1 0h7.3q0.1 0 0.1 0 0.1 0 0.2 0.1 0 0 0.1 0.1 0 0.1 0 0.2l0.1 27.8q0 0.1 0 0.1 0 0.1 0.1 0.2 0 0 0.1 0.1 0.1 0 0.2 0h7.4q0.1 0 0.2 0 0 0 0.1 0.1 0 0 0.1 0.1 0 0.1 0 0.2v5.7q0 0 0 0.1 0 0.1-0.1 0.2-0.1 0-0.1 0-0.1 0.1-0.2 0.1h-7.4q-0.1 0-0.2 0 0 0.1-0.1 0.1-0.1 0.1-0.1 0.1 0 0.1 0 0.2v8.8q0 0.1 0 0.2-0.1 0-0.1 0.1-0.1 0-0.2 0.1 0 0-0.1 0h-6.3q-0.1 0-0.2 0-0.1 0-0.1-0.1-0.1-0.1-0.1-0.1 0-0.1 0-0.2l-0.1-8.8q0-0.1 0-0.1 0-0.1-0.1-0.2 0 0-0.1-0.1-0.1 0-0.2 0l-19.9 0.1q-0.1 0-0.2-0.1 0 0-0.1-0.1 0 0-0.1-0.1 0-0.1 0-0.2v-5.3q0 0 0-0.1 0 0 0 0 0-0.1 0-0.1 0 0 0 0zm20.7-18.4q0-0.1-0.1-0.2 0-0.1-0.1-0.1-0.1-0.1-0.2 0-0.1 0-0.2 0.1l-11.9 17.6q-0.1 0-0.1 0.1 0 0.1 0.1 0.2 0 0.1 0.1 0.1 0.1 0 0.1 0h12q0.1 0 0.1 0 0.1 0 0.1-0.1 0.1 0 0.1-0.1 0 0 0-0.1z"/>
	<path id="O1" class="s0" d="m128.9 38.1c2.2-0.1 4.3 0.3 6.4 1 2 0.8 3.8 2 5.4 3.5 1.6 1.5 2.9 3.3 3.8 5.3 0.9 2 1.4 4.2 1.5 6.4 0.1 2.2-0.3 4.4-1 6.5-0.8 2.1-1.9 4-3.4 5.6-1.4 1.6-3.2 2.9-5.2 3.9-1.9 0.9-4.1 1.4-6.2 1.5-2.2 0.1-4.4-0.3-6.4-1.1-2-0.7-3.9-1.9-5.5-3.4-1.5-1.5-2.8-3.3-3.7-5.4-0.9-2-1.4-4.1-1.5-6.3-0.1-2.3 0.2-4.5 1-6.5 0.7-2.1 1.9-4 3.4-5.6 1.4-1.7 3.2-3 5.2-3.9 1.9-0.9 4.1-1.4 6.2-1.5zm0.3 6.6c-1.2 0.1-2.4 0.4-3.5 0.9-1.1 0.6-2 1.3-2.9 2.3-0.8 1-1.4 2.1-1.9 3.4-0.4 1.3-0.6 2.6-0.5 3.9 0 1.4 0.3 2.7 0.8 3.9 0.5 1.2 1.2 2.4 2.1 3.3 0.9 0.9 1.9 1.6 3 2.1 1.2 0.5 2.4 0.7 3.6 0.7 1.2-0.1 2.4-0.4 3.5-0.9 1.1-0.6 2-1.4 2.9-2.3 0.8-1 1.4-2.2 1.9-3.4 0.4-1.3 0.6-2.6 0.5-4 0-1.3-0.3-2.6-0.8-3.8-0.5-1.3-1.2-2.4-2.1-3.3-0.9-0.9-1.9-1.6-3-2.1-1.2-0.5-2.4-0.7-3.6-0.7z"/>
	<path id="O2" class="s0" d="m166.6 38.1c9.7-0.1 16.4 7.1 16.4 16.6 0.1 9.5-6.4 16.8-16.1 16.9-9.7 0.1-16.4-7.1-16.5-16.6-0.1-9.5 6.5-16.8 16.2-16.9zm-0.2 6.5c-1.2 0.1-2.3 0.4-3.4 0.9-1.1 0.5-2.1 1.3-2.9 2.3-0.9 1-1.5 2.1-1.9 3.4-0.5 1.2-0.7 2.6-0.6 3.9 0 1.4 0.3 2.7 0.8 3.9 0.5 1.2 1.2 2.4 2.1 3.3 0.8 0.9 1.9 1.6 3 2.1 1.1 0.5 2.3 0.7 3.5 0.7 1.2 0 2.4-0.3 3.5-0.9 1.1-0.5 2.1-1.3 2.9-2.3 0.8-1 1.5-2.1 1.9-3.4 0.4-1.2 0.6-2.6 0.6-3.9-0.1-1.3-0.3-2.7-0.8-3.9-0.5-1.2-1.2-2.3-2.1-3.3-0.9-0.9-1.9-1.6-3-2.1-1.2-0.5-2.4-0.7-3.6-0.7z"/>
	<path id="M" class="s0" d="m196.6 42.7c4.9-7 15.5-6 18.9 1.6q0 0.1 0.1 0.2 0.1 0.1 0.2 0.1 0.1 0 0.2-0.1 0.1-0.1 0.1-0.2 3.2-6.6 10.6-6.2c7.8 0.3 10.6 6.8 10.6 13.8q0 6.2 0 18.3 0 0.1 0 0.2 0 0.1-0.1 0.1-0.1 0.1-0.2 0.1-0.1 0.1-0.2 0.1h-6.2q-0.1 0-0.1 0-0.1-0.1-0.2-0.1 0-0.1-0.1-0.2 0 0 0-0.1l-0.1-18q0-0.1 0-0.3 0-0.1 0-0.3 0-0.2-0.1-0.3 0-0.2 0-0.3l-0.8-3q-0.1-0.1-0.1-0.2 0-0.1-0.1-0.2 0-0.2-0.1-0.3 0 0-0.1-0.1-1.6-2.5-5.1-2.5c-5.4 0-6.7 5-6.8 9.5q0 4.4 0.1 15.9 0 0.1-0.1 0.2 0 0.1-0.1 0.2-0.1 0.1-0.2 0.1-0.1 0-0.2 0h-6.1q-0.1 0-0.2 0-0.1 0-0.2-0.1-0.1-0.1-0.1-0.2 0-0.1 0-0.2 0.1-8.7-0.1-17-0.1-4.3-2.1-6.9 0-0.1-0.1-0.2-0.1-0.1-0.2-0.2-0.1 0-0.3-0.1-0.1-0.1-0.2-0.1c-6.3-2.6-10.2 1.5-10.2 7.6q-0.1 8.9 0 17.1 0 0-0.1 0.1 0 0.1-0.1 0.2 0 0-0.1 0-0.1 0.1-0.1 0.1h-6.5q-0.1 0-0.1 0-0.1-0.1-0.2-0.1 0-0.1-0.1-0.2 0 0 0-0.1l-0.1-30.7q0-0.2 0.1-0.4 0.1-0.1 0.2-0.3 0.1-0.1 0.3-0.1 0.2-0.1 0.3-0.1h5.1q0.1 0 0.3 0 0.2 0.1 0.3 0.3 0.2 0.1 0.2 0.3 0.1 0.1 0.1 0.3v2.8q0 0.1 0.1 0.2 0 0 0.1 0.1 0.1 0 0.2 0 0.1-0.1 0.1-0.1z"/>
	<g id="Folder">
		<path id="TL" class="s0" d="m17.4 43.1c-4.4 4.1-10.7 5.2-16.3 2.9q-0.1 0-0.3-0.1-0.1-0.1-0.2-0.3-0.1-0.1-0.2-0.3 0-0.1 0-0.3c-0.3-5.1 2.3-10.3 6-13.8 3.7-3.4 9.1-5.6 14.2-4.9q0.1 0 0.3 0.1 0.2 0 0.3 0.1 0.1 0.1 0.2 0.3 0.1 0.1 0.2 0.3c1.7 5.7 0.2 11.9-4.2 16z"/>
		<path id="TR" class="s1" d="m41.1 31.2c3.7 3.5 6.3 8.7 6 13.8q0 0.2-0.1 0.3 0 0.2-0.1 0.3-0.1 0.2-0.2 0.3-0.2 0.1-0.3 0.1c-5.6 2.2-11.9 1.2-16.3-2.9-4.4-4.1-5.9-10.3-4.1-16q0-0.2 0.1-0.3 0.1-0.2 0.2-0.3 0.2-0.1 0.3-0.1 0.2-0.1 0.3-0.1c5.1-0.7 10.5 1.5 14.2 4.9z"/>
		<path id="BL" class="s0" d="m6.4 65.3c-3.7-3.4-6.3-8.7-6-13.8q0-0.1 0.1-0.3 0-0.2 0.1-0.3 0.1-0.1 0.2-0.2 0.2-0.1 0.3-0.2c5.6-2.2 11.9-1.1 16.3 3 4.4 4.1 5.9 10.3 4.2 16q-0.1 0.1-0.2 0.3-0.1 0.1-0.2 0.2-0.1 0.1-0.3 0.2-0.2 0.1-0.3 0.1c-5.1 0.6-10.5-1.6-14.2-5z"/>
		<path id="BR" class="s0" d="m41.1 65.3c-3.6 3.5-9.1 5.7-14.1 5q-0.2 0-0.4 0-0.1-0.1-0.2-0.2-0.2-0.1-0.3-0.3-0.1-0.1-0.1-0.3c-1.8-5.7-0.3-11.9 4.1-16 4.4-4.1 10.7-5.2 16.3-3q0.1 0.1 0.3 0.2 0.1 0.1 0.2 0.2 0.1 0.2 0.2 0.3 0 0.2 0 0.3c0.3 5.2-2.3 10.4-6 13.8z"/>
	</g>
</svg>