<svg version="1.2" xmlns="http://www.w3.org/2000/svg" viewBox="0 0 236 53" width="236" height="53">
	<title>Component 1</title>
	<style>
		.s0 { fill: #222124 } 
		.s1 { fill: #fc7146 } 
	</style>
	<path id="O1" class="s0" d="m74.3 40.9c0 1.2-0.2 2.5-0.7 3.7-0.5 1.2-1.2 2.2-2.1 3.2-0.9 0.9-2 1.6-3.2 2.1-1.2 0.5-2.4 0.7-3.7 0.7h-1.8c-1.3 0-2.6-0.2-3.8-0.7-1.2-0.5-2.2-1.2-3.1-2.1-0.9-1-1.7-2-2.2-3.2-0.4-1.2-0.7-2.5-0.7-3.7v-26.6c0-1.2 0.3-2.5 0.7-3.7 0.5-1.2 1.3-2.2 2.2-3.2 0.9-0.9 1.9-1.6 3.1-2.1 1.2-0.5 2.5-0.7 3.8-0.7h1.8c1.3 0 2.5 0.2 3.7 0.7 1.2 0.5 2.3 1.2 3.2 2.1 0.9 1 1.6 2 2.1 3.2 0.5 1.2 0.7 2.5 0.7 3.7zm-7-26.4q0-0.7-0.3-1.3-0.3-0.7-0.7-1.2-0.5-0.4-1.2-0.7-0.6-0.3-1.3-0.3h-0.4q-0.7 0-1.3 0.3-0.6 0.3-1.1 0.7-0.5 0.5-0.7 1.2-0.3 0.6-0.3 1.3v26.4q0 0.7 0.3 1.3 0.2 0.6 0.7 1.1 0.5 0.5 1.1 0.7 0.6 0.3 1.3 0.3h0.4q0.7 0 1.3-0.3 0.7-0.2 1.2-0.7 0.4-0.5 0.7-1.1 0.3-0.6 0.3-1.3z"/>
	<path id="O2" class="s0" d="m100 40.9c0 1.2-0.3 2.5-0.8 3.7-0.5 1.2-1.2 2.3-2.1 3.2-0.9 0.9-2 1.6-3.2 2.1-1.1 0.5-2.4 0.7-3.7 0.7h-1.8c-1.3 0-2.6-0.2-3.8-0.7-1.1-0.5-2.2-1.2-3.1-2.1-0.9-0.9-1.6-2-2.1-3.2-0.5-1.2-0.8-2.5-0.8-3.7v-26.5c0-1.3 0.3-2.6 0.8-3.8 0.5-1.2 1.2-2.2 2.1-3.1 0.9-0.9 2-1.7 3.1-2.2 1.2-0.4 2.5-0.7 3.8-0.7h1.8c1.3 0 2.6 0.3 3.7 0.7 1.2 0.5 2.3 1.3 3.2 2.2 0.9 0.9 1.6 1.9 2.1 3.1 0.5 1.2 0.8 2.5 0.8 3.8zm-7.1-26.5q0-0.7-0.3-1.3-0.3-0.6-0.7-1.1-0.5-0.5-1.2-0.8-0.6-0.2-1.3-0.2l-0.3-0.1q-0.7 0.1-1.3 0.3-0.7 0.3-1.2 0.8-0.4 0.5-0.7 1.1-0.3 0.6-0.3 1.3v26.4q0 0.6 0.3 1.3 0.3 0.6 0.7 1.1 0.5 0.5 1.2 0.8 0.6 0.2 1.3 0.2h0.3q0.7 0 1.3-0.2 0.7-0.3 1.2-0.8 0.4-0.5 0.7-1.1 0.3-0.7 0.3-1.3z"/>
	<path id="NUM2" class="s0" d="m171.3 18.7q0 0.3 0 0.5-0.1 0.3-0.3 0.5-0.2 0.2-0.4 0.4-0.3 0.1-0.6 0.1h-4.3q-0.2 0-0.4-0.1-0.3-0.1-0.5-0.3-0.1-0.2-0.2-0.4-0.1-0.3-0.1-0.5 0.3-5.9 0.6-7.1 1.9-7 9.4-7.2 7.5-0.2 10 5.2c2.8 6.4 0.3 13.8-4.3 19.2-4.7 5.5-8.6 8.5-8.6 14q0 0.1 0 0.2 0.1 0.1 0.2 0.2 0.1 0.1 0.2 0.2 0.1 0 0.2 0h12.3q0.1 0 0.2 0.1 0.1 0 0.2 0.1 0 0 0.1 0.1 0 0.1 0 0.2v5.5q0 0 0 0.1-0.1 0.1-0.1 0.2-0.1 0-0.2 0.1-0.1 0-0.1 0h-19.3q-0.1 0-0.2 0-0.1-0.1-0.2-0.2-0.1 0-0.1-0.2-0.1-0.1-0.1-0.2-0.5-6.9 1.2-11.8c1.2-3.5 4.8-7.5 7.4-10q0.9-0.9 3.1-4.3 2.9-4.6 1.9-9.8-0.1-0.5-0.3-0.8-0.2-0.4-0.5-0.8-0.3-0.3-0.7-0.5-0.4-0.2-0.8-0.3c-5-0.9-5.2 4.4-4.7 7.6z"/>
	<path id="B" class="s0" d="m23 26.4c5.3 3 5 9 4.5 14.3q-0.7 8.8-9.5 9.2-4.5 0.2-11.5 0.1-0.1 0-0.2-0.1-0.1 0-0.2-0.1-0.1-0.1-0.2-0.2 0-0.2 0-0.3v-43.5q0-0.1 0-0.2 0.1-0.1 0.1-0.2 0.1-0.1 0.2-0.1 0.1-0.1 0.2-0.1 3.3 0.1 8.4 0c6.7-0.1 11.5 1.4 12 8.6 0.3 4.4 0.4 9.2-3.8 12q-0.1 0-0.2 0.1 0 0.1 0 0.2 0 0.1 0 0.2 0.1 0.1 0.2 0.1zm-10.1-14.5v11.2q0 0.1 0 0.1 0 0.1 0.1 0.1 0 0.1 0.1 0.1 0 0 0.1 0h2.9q0.8 0 1.5-0.3 0.7-0.3 1.2-0.8 0.5-0.5 0.8-1.2 0.3-0.7 0.3-1.5v-4.3q0-0.7-0.3-1.4-0.3-0.7-0.8-1.3-0.6-0.5-1.2-0.8-0.7-0.3-1.5-0.3l-2.9 0.1q-0.1 0-0.1 0-0.1 0-0.1 0-0.1 0.1-0.1 0.2 0 0 0 0.1zm0 18.4v13q0 0.1 0 0.2 0 0 0.1 0.1 0 0 0.1 0.1 0.1 0 0.1 0h3.8q0.7 0 1.3-0.3 0.7-0.3 1.2-0.8 0.5-0.5 0.8-1.2 0.2-0.7 0.2-1.4v-6.4q0-0.7-0.3-1.4-0.2-0.7-0.7-1.2-0.5-0.5-1.2-0.8-0.7-0.3-1.4-0.3h-3.7q-0.1 0-0.1 0.1-0.1 0-0.1 0-0.1 0.1-0.1 0.1 0 0.1 0 0.2z"/>
	<path id="L" class="s0" d="m50 50h-17.8q-0.1 0-0.2 0-0.1-0.1-0.1-0.1-0.1-0.1-0.1-0.2 0 0-0.1-0.1l0.1-43.9q0-0.1 0-0.2 0-0.1 0.1-0.1 0-0.1 0.1-0.1 0.1 0 0.2 0h6.1q0.1 0 0.2 0 0.1 0 0.1 0.1 0.1 0 0.1 0.1 0 0.1 0.1 0.2v37.5q0 0.1 0 0.2 0 0.1 0.1 0.1 0 0.1 0.1 0.1 0.1 0 0.2 0h10.8q0.1 0 0.1 0.1 0.1 0 0.2 0.1 0 0 0 0.1 0.1 0.1 0.1 0.1v5.6q0 0.1-0.1 0.1 0 0.1 0 0.2-0.1 0-0.2 0.1 0 0-0.1 0z"/>
	<path id="M" class="s0" d="m127.3 17.1q0-0.1 0-0.1-0.1 0-0.1 0 0 0 0 0 0-0.1 0-0.1-0.1 0-0.1 0-0.1 0.1-0.1 0.1 0 0 0 0 0 0.1 0 0.1l-4.9 32.3q0 0.2-0.1 0.3 0 0.1-0.1 0.1-0.1 0.1-0.2 0.2-0.2 0-0.3 0h-4.7q-0.1 0-0.2 0-0.2-0.1-0.3-0.2 0 0-0.1-0.2-0.1-0.1-0.1-0.2l-4.9-32.6q0 0 0 0 0 0 0 0-0.1-0.1-0.1-0.1 0 0 0 0-0.1 0-0.1 0 0 0.1 0 0.1 0 0 0 0 0 0 0 0.1v32.8q0 0.1 0 0.1-0.1 0.1-0.1 0.1 0 0-0.1 0.1 0 0-0.1 0h-5.6q0 0-0.1 0 0-0.1-0.1-0.1 0 0 0-0.1 0 0 0-0.1v-44.1q0 0 0-0.1 0-0.1 0.1-0.1 0-0.1 0.1-0.1 0.1 0 0.1 0h9.2q0.1-0.1 0.1 0 0.1 0 0.1 0 0.1 0.1 0.1 0.1 0 0.1 0.1 0.2l4.6 30.8q0 0 0 0 0.1 0.1 0.1 0.1 0 0.1 0.1 0.1 0 0 0.1 0 0.6-0.1 0.2-1 0-0.1 0-0.2-0.1-0.1-0.1-0.2 0-0.2 0-0.3 0-0.1 0-0.2l4.1-29.1q0-0.1 0-0.2 0.1 0 0.1-0.1 0.1 0 0.1 0 0.1-0.1 0.2 0h9.4q0.1 0 0.1 0 0.1 0 0.1 0 0 0.1 0 0.1 0.1 0.1 0.1 0.1v44.2q0 0.1 0 0.1-0.1 0.1-0.1 0.1 0 0.1-0.1 0.1 0 0-0.1 0h-6q-0.1 0-0.2 0 0-0.1-0.1-0.1 0 0 0-0.1 0-0.1 0-0.1z"/>
	<path id="NUM4" class="s0" d="m150.9 49.6v-7.3q0-0.1-0.1-0.2 0 0 0-0.1-0.1-0.1-0.2-0.1-0.1 0-0.1 0h-12.6q-0.1 0-0.2-0.1 0 0-0.1-0.1 0 0-0.1-0.1 0-0.1 0-0.1v-5.9q0-0.1 0-0.1 0 0 0 0 0 0 0-0.1 0 0 0 0l12.7-29.9q0-0.1 0-0.1 0.1-0.1 0.1-0.1 0.1 0 0.1 0 0.1-0.1 0.2-0.1h7q0.1 0 0.1 0.1 0.1 0 0.2 0.1 0 0 0.1 0.1 0 0.1 0 0.2v29.4q0 0.1 0 0.2 0.1 0 0.1 0.1 0.1 0 0.2 0.1 0 0 0.1 0h2.4q0.1 0 0.2 0 0.1 0.1 0.1 0.1 0.1 0.1 0.1 0.2 0 0 0 0.1v5.6q0 0 0 0.1 0 0.1-0.1 0.1 0 0.1-0.1 0.1-0.1 0.1-0.2 0.1h-2.4q-0.1 0-0.2 0 0 0-0.1 0.1 0 0.1-0.1 0.1 0 0.1 0 0.2v7.3q0 0.1 0 0.1-0.1 0.1-0.1 0.2-0.1 0-0.2 0.1 0 0-0.1 0h-6.3q-0.1 0-0.2 0 0-0.1-0.1-0.1-0.1-0.1-0.1-0.2 0 0 0-0.1zm0-30.8q0 0-0.1 0 0 0 0 0 0 0-0.1 0 0 0 0 0l-6.8 16q0 0.1 0 0.3 0 0.1 0.1 0.2 0 0.1 0.2 0.2 0.1 0 0.2 0h5.8q0.2 0 0.3 0 0.1-0.1 0.2-0.2 0.1-0.1 0.1-0.2 0.1-0.1 0.1-0.2z"/>
	<g id="Folder">
		<path id="TL" class="s0" d="m202.5 13.6q4.5-4.1 10.9-4.1 0.3 0 0.5 0.1 0.3 0 0.5 0.2 0.2 0.2 0.3 0.4 0.1 0.2 0.2 0.5 1.6 7.7-3.6 12.5-5.1 4.7-12.7 2.6-0.2 0-0.4-0.2-0.2-0.1-0.4-0.4-0.1-0.2-0.2-0.4-0.1-0.3-0.1-0.5 0.5-6.5 5-10.7z"/>
		<path id="TR" class="s1" d="m230.6 13.7q4.5 4.2 4.9 10.6 0 0.3 0 0.5-0.1 0.3-0.3 0.5-0.1 0.2-0.3 0.4-0.2 0.1-0.5 0.2-7.6 2.1-12.7-2.7-5.1-4.8-3.5-12.6 0.1-0.2 0.2-0.4 0.1-0.2 0.3-0.4 0.2-0.2 0.5-0.3 0.2-0.1 0.5-0.1 6.4 0.1 10.9 4.3z"/>
		<path id="BL" class="s0" d="m211.4 31.7q5.1 4.8 3.5 12.5-0.1 0.3-0.2 0.5-0.1 0.2-0.3 0.4-0.2 0.1-0.5 0.2-0.2 0.1-0.5 0.1-6.5 0-10.9-4.2-4.5-4.2-5-10.7 0-0.2 0.1-0.5 0.1-0.2 0.2-0.4 0.2-0.2 0.4-0.4 0.2-0.1 0.4-0.2 7.6-2.1 12.8 2.7z"/>
		<path id="BR" class="s0" d="m230.6 41.2q-4.5 4.2-11 4.2-0.2 0-0.5-0.1-0.2-0.1-0.4-0.3-0.2-0.1-0.4-0.3-0.1-0.3-0.1-0.5-1.6-7.7 3.5-12.5 5.2-4.8 12.8-2.7 0.2 0.1 0.4 0.2 0.2 0.2 0.4 0.4 0.1 0.2 0.2 0.5 0.1 0.2 0.1 0.5-0.5 6.4-5 10.6z"/>
	</g>
</svg>