<svg version="1.2" xmlns="http://www.w3.org/2000/svg" viewBox="0 0 313 96" width="313" height="96">
	<title>Component 2 (1)</title>
	<style>
		.s0 { fill: #222124 } 
		.s1 { fill: #fc7146 } 
	</style>
	<path id="NUM2" class="s0" d="m237.2 63.4h19.9q0.1 0 0.2 0 0.1 0.1 0.2 0.1 0.1 0.1 0.1 0.2 0 0.1 0 0.2v5.6q0 0.1 0 0.2 0 0.1-0.1 0.2-0.1 0-0.2 0.1-0.1 0-0.2 0h-28.6q-0.1 0-0.2 0-0.1-0.1-0.2-0.2-0.1 0-0.1-0.1-0.1-0.1-0.1-0.2-1.3-8.1 4.1-13.8 3.6-3.9 9.1-7.5c4-2.6 10.2-7.4 7.7-13.1q-1.2-2.5-4-3.4-7.3-2.1-10.9 5.2-0.1 0.1-0.2 0.2-0.1 0.1-0.2 0.1-0.1 0.1-0.3 0.1-0.1 0-0.2 0l-6.5-1.3q-0.2 0-0.2 0-0.1-0.1-0.2-0.2-0.1-0.1-0.1-0.2 0-0.1 0.1-0.3 2.5-7.5 9.7-9.9c5.9-2 14-0.8 18.2 4q4.1 4.8 2.6 12.1-0.1 0.2-0.1 0.3 0 0.1-0.1 0.2 0 0.1-0.1 0.3 0 0.1-0.1 0.2-2.9 5.6-7.6 8.9c-4.6 3.1-10.2 6.7-11.7 11.5q-0.1 0-0.1 0.1 0 0.1 0.1 0.2 0.1 0.1 0.1 0.1 0.1 0.1 0.2 0.1z"/>
	<path id="B" class="s0" d="m30.7 47.1q4.7 3.3 5.4 6.6c2.3 9.8-3.7 16-13.1 16.2q-8.3 0.2-17 0.1-0.1 0-0.2-0.1-0.2 0-0.2-0.1-0.1-0.1-0.2-0.2 0-0.1 0-0.3v-43.5q0-0.1 0-0.2 0.1-0.1 0.1-0.2 0.1-0.1 0.2-0.1 0.1 0 0.3 0 6-0.1 15.2 0c5.1 0 11.2 2.3 13.1 7.4q3 8.5-3.7 13.6-0.1 0.1-0.1 0.2-0.1 0.1-0.1 0.2 0 0.2 0.1 0.3 0.1 0.1 0.2 0.1zm-17.9-15.5l-0.1 12q0 0.1 0 0.1 0 0.1 0.1 0.2 0 0 0.1 0 0.1 0.1 0.2 0.1h7.5q1.4 0.1 2.7-0.4 1.3-0.4 2.3-1.3 0.9-0.8 1.5-1.9 0.5-1.1 0.5-2.3v-0.6q0.1-1.2-0.5-2.4-0.5-1.1-1.4-1.9-1-0.9-2.3-1.4-1.3-0.4-2.6-0.4l-7.6-0.1q-0.1 0-0.2 0 0 0-0.1 0.1 0 0-0.1 0.1 0 0.1 0 0.1zm0 19l-0.1 12.4q0 0 0.1 0.1 0 0.1 0.1 0.1 0 0.1 0.1 0.1 0.1 0.1 0.1 0.1h8.2q1.6 0 3-0.5 1.4-0.5 2.5-1.3 1.1-0.9 1.7-2.1 0.6-1.1 0.6-2.4v-0.6q0-1.2-0.5-2.4-0.6-1.2-1.7-2-1.1-0.9-2.6-1.4-1.4-0.5-3-0.5h-8.1q-0.1 0-0.2 0 0 0-0.1 0.1-0.1 0-0.1 0.1 0 0.1 0 0.2z"/>
	<path id="L" fill-rule="evenodd" class="s0" d="m43.7 25.3h6.4c0.2 0 0.4 0.2 0.4 0.4v43.9c0 0.2-0.2 0.4-0.4 0.4h-6.4c-0.2 0-0.4-0.2-0.4-0.4v-43.9c0-0.2 0.2-0.4 0.4-0.4z"/>
	<path id="NUM4" class="s0" d="m186.3 54.4l19.8-29q0 0 0.1 0 0-0.1 0.1-0.1 0 0 0.1 0 0-0.1 0.1 0h7.2q0.1 0 0.2 0 0.1 0 0.1 0.1 0.1 0 0.1 0.1 0 0.1 0 0.2v27.8q0 0.1 0.1 0.1 0 0.1 0.1 0.2 0 0 0.1 0 0.1 0.1 0.1 0.1h7.5q0.1 0 0.1 0 0.1 0 0.2 0.1 0 0.1 0 0.1 0.1 0.1 0.1 0.2v5.7q0 0.1-0.1 0.1 0 0.1 0 0.2-0.1 0-0.2 0 0 0.1-0.1 0.1h-7.5q0 0-0.1 0-0.1 0-0.1 0.1-0.1 0.1-0.1 0.1-0.1 0.1-0.1 0.2v8.8q0 0.1 0 0.1 0 0.1-0.1 0.2 0 0-0.1 0.1-0.1 0-0.2 0h-6.3q-0.1 0-0.1 0-0.1-0.1-0.2-0.1 0-0.1-0.1-0.2 0 0 0-0.1v-8.8q0-0.1 0-0.2-0.1 0-0.1-0.1-0.1-0.1-0.2-0.1 0 0-0.1 0h-19.9q-0.1 0-0.2-0.1-0.1 0-0.1 0-0.1-0.1-0.1-0.2 0 0-0.1-0.1v-5.4q0 0 0.1 0 0-0.1 0-0.1 0 0 0-0.1 0 0 0 0zm20.7-18.4q0-0.1-0.1-0.1 0-0.1-0.1-0.1-0.1-0.1-0.2 0-0.1 0-0.2 0.1l-12 17.5q0 0.1 0 0.2 0 0.1 0 0.1 0.1 0.1 0.2 0.1 0 0.1 0.1 0.1h12q0.1 0 0.1 0 0.1-0.1 0.1-0.1 0.1 0 0.1-0.1 0-0.1 0-0.1z"/>
	<path id="O1" class="s0" d="m72.4 37.2c2.2-0.1 4.3 0.2 6.4 1 2 0.8 3.9 2 5.4 3.5 1.6 1.5 2.9 3.3 3.8 5.3 0.9 2 1.4 4.2 1.5 6.4 0 2.2-0.3 4.4-1.1 6.5-0.7 2.1-1.9 4-3.3 5.6-1.5 1.6-3.3 2.9-5.2 3.8-2 1-4.1 1.5-6.3 1.5-2.2 0.1-4.3-0.2-6.3-1-2.1-0.8-3.9-2-5.5-3.5-1.6-1.5-2.9-3.3-3.8-5.3-0.9-2-1.4-4.2-1.5-6.4 0-2.2 0.3-4.4 1.1-6.5 0.7-2.1 1.9-4 3.4-5.6 1.4-1.6 3.2-2.9 5.2-3.8 1.9-1 4.1-1.5 6.2-1.5zm0.3 6.6c-1.2 0-2.4 0.3-3.5 0.9-1.1 0.5-2.1 1.3-2.9 2.3-0.8 0.9-1.4 2.1-1.9 3.3-0.4 1.3-0.6 2.6-0.6 4 0.1 1.3 0.4 2.6 0.9 3.9 0.5 1.2 1.2 2.3 2 3.2 0.9 0.9 2 1.7 3.1 2.2 1.1 0.4 2.3 0.7 3.5 0.6 1.2 0 2.4-0.3 3.5-0.9 1.1-0.5 2.1-1.3 2.9-2.3 0.8-0.9 1.5-2.1 1.9-3.3 0.4-1.3 0.6-2.6 0.6-4 0-1.3-0.3-2.6-0.8-3.9-0.5-1.2-1.2-2.3-2.1-3.2-0.9-0.9-1.9-1.7-3-2.2-1.2-0.4-2.4-0.7-3.6-0.6z"/>
	<path id="O2" class="s0" d="m110.1 37.3c9.7-0.1 16.4 7.1 16.4 16.6 0.1 9.5-6.5 16.8-16.2 16.8-9.7 0.1-16.4-7.1-16.4-16.6-0.1-9.5 6.5-16.8 16.2-16.8zm-0.2 6.5c-1.2 0-2.4 0.3-3.4 0.8-1.1 0.6-2.1 1.4-3 2.3-0.8 1-1.4 2.2-1.9 3.4-0.4 1.3-0.6 2.6-0.5 3.9 0 1.4 0.3 2.7 0.8 3.9 0.4 1.3 1.1 2.4 2 3.3 0.9 0.9 1.9 1.7 3 2.2 1.2 0.4 2.4 0.7 3.6 0.6 1.2 0 2.4-0.3 3.4-0.8 1.1-0.6 2.1-1.3 3-2.3 0.8-1 1.4-2.1 1.9-3.4 0.4-1.2 0.6-2.6 0.5-3.9 0-1.4-0.3-2.7-0.8-3.9-0.4-1.3-1.1-2.4-2-3.3-0.9-0.9-1.9-1.7-3-2.1-1.2-0.5-2.4-0.8-3.6-0.7z"/>
	<path id="M" class="s0" d="m140.1 41.9c4.9-7 15.5-6 18.9 1.7q0 0.1 0.1 0.2 0.1 0 0.2 0 0.1 0 0.2 0 0.1-0.1 0.1-0.2 3.2-6.6 10.6-6.3c7.8 0.4 10.6 6.9 10.6 13.9q-0.1 6.3 0 18.3 0 0.1-0.1 0.2 0 0.1-0.1 0.2 0 0-0.1 0.1-0.1 0-0.2 0h-6.2q-0.1 0-0.2 0-0.1-0.1-0.2-0.1 0-0.1 0-0.2-0.1-0.1-0.1-0.1v-18q0-0.1 0-0.3 0-0.2 0-0.3 0-0.2-0.1-0.3 0-0.2-0.1-0.3l-0.7-3q-0.1-0.1-0.1-0.2 0-0.2-0.1-0.3 0-0.1-0.1-0.2 0-0.1-0.1-0.2-1.6-2.4-5.1-2.4c-5.4-0.1-6.8 5-6.8 9.5q0 4.4 0 15.9 0 0.1 0 0.2-0.1 0.1-0.2 0.1 0 0.1-0.1 0.2-0.1 0-0.2 0h-6.2q-0.1 0-0.2 0-0.1-0.1-0.1-0.2-0.1 0-0.2-0.1 0-0.1 0-0.2 0.2-8.8 0-17-0.2-4.4-2.1-6.9-0.1-0.1-0.1-0.2-0.1-0.1-0.2-0.2-0.1-0.1-0.3-0.2-0.1 0-0.2-0.1c-6.3-2.6-10.2 1.5-10.3 7.6q0 9 0 17.1 0 0.1 0 0.1-0.1 0.1-0.1 0.2-0.1 0-0.2 0.1 0 0-0.1 0h-6.4q-0.1 0-0.2 0-0.1-0.1-0.1-0.1-0.1-0.1-0.1-0.2 0 0-0.1-0.1l0.1-30.7q0-0.2 0-0.4 0.1-0.1 0.2-0.2 0.1-0.2 0.3-0.2 0.2-0.1 0.3-0.1h5.1q0.2 0 0.3 0.1 0.2 0 0.3 0.2 0.2 0.1 0.3 0.3 0 0.2 0 0.4v2.7q0 0.1 0.1 0.2 0 0 0.1 0.1 0.1 0 0.2 0 0.1-0.1 0.1-0.1z"/>
	<g id="Folder">
		<path id="TL" class="s0" d="m283.9 42.9c-4.3 4-10.4 5-15.8 2.9q-0.2-0.1-0.3-0.2-0.1-0.1-0.2-0.2-0.1-0.2-0.2-0.3 0-0.2 0-0.3c-0.3-5 2.2-10.1 5.8-13.4 3.6-3.3 8.9-5.4 13.8-4.8q0.1 0 0.3 0.1 0.1 0 0.3 0.1 0.1 0.1 0.2 0.3 0.1 0.1 0.1 0.3c1.8 5.5 0.3 11.5-4 15.5z"/>
		<path id="TR" class="s1" d="m306.9 31.4c3.6 3.3 6.1 8.4 5.8 13.4q0 0.1 0 0.3-0.1 0.1-0.2 0.3-0.1 0.1-0.2 0.2-0.1 0.1-0.3 0.2c-5.4 2.1-11.5 1.1-15.8-2.9-4.2-4-5.7-10-4-15.5q0.1-0.2 0.2-0.3 0-0.2 0.2-0.3 0.1-0.1 0.2-0.1 0.2-0.1 0.4-0.1c4.9-0.6 10.1 1.5 13.7 4.8z"/>
		<path id="BL" class="s0" d="m273.2 64.5c-3.6-3.4-6.1-8.5-5.8-13.4q0-0.2 0.1-0.3 0-0.2 0.1-0.3 0.1-0.2 0.2-0.3 0.2-0.1 0.3-0.1c5.4-2.1 11.5-1.1 15.8 2.9 4.3 3.9 5.8 10 4 15.5q0 0.2-0.1 0.3-0.1 0.1-0.2 0.2-0.2 0.1-0.3 0.2-0.2 0.1-0.3 0.1c-4.9 0.6-10.2-1.5-13.8-4.8z"/>
		<path id="BR" class="s0" d="m306.9 64.5c-3.5 3.3-8.8 5.5-13.7 4.8q-0.2 0-0.3 0-0.2-0.1-0.3-0.2-0.1-0.1-0.2-0.2-0.1-0.2-0.2-0.3c-1.7-5.6-0.2-11.6 4-15.6 4.3-4 10.4-5 15.8-2.9q0.2 0.1 0.3 0.2 0.1 0.1 0.2 0.2 0.1 0.1 0.2 0.3 0 0.1 0 0.3c0.3 5-2.2 10.1-5.8 13.4z"/>
	</g>
</svg>