<svg width="25" height="25" viewBox="0 0 25 25" fill="none" xmlns="http://www.w3.org/2000/svg">
<path d="M18.0781 6.82143C18.8753 7.59248 19.4067 8.12258 19.6724 8.41173C23.2718 12.6766 25.0474 17.5318 24.999 22.9774C24.9749 23.0015 24.9628 23.0376 24.9628 23.0858C24.9628 23.1099 24.9507 23.134 24.9266 23.1581C24.9024 23.1822 24.8903 23.1942 24.8903 23.1942C24.8662 23.2183 24.842 23.2424 24.8179 23.2665C21.1943 24.7845 17.752 25.2664 14.4908 24.7122C11.0847 24.134 8.07712 22.6762 5.46817 20.3389C5.44402 20.3148 5.43194 20.3028 5.43194 20.3028C5.43194 20.3028 5.41986 20.2907 5.3957 20.2666C2.88338 17.8089 1.22863 14.9054 0.431454 11.5562C-0.341567 8.35149 -0.0758422 4.90585 1.22863 1.21926C1.22863 1.17106 1.24071 1.13492 1.26487 1.11083C1.26487 1.11083 1.27695 1.09878 1.3011 1.07468C1.32526 1.05059 1.34942 1.03854 1.37357 1.03854C1.39773 1.01445 1.43397 1.0024 1.48228 1.0024C6.91759 0.592776 11.8818 2.0385 16.375 5.33956C16.7132 5.58052 17.2809 6.07447 18.0781 6.82143Z" fill="#FD7247"/>
</svg>
