<svg width="28" height="26" viewBox="0 0 28 26" fill="none" xmlns="http://www.w3.org/2000/svg">
<path d="M20.423 20.5531C20.4102 20.5637 20.3966 20.5737 20.384 20.5852C20.3872 20.5822 20.3908 20.5788 20.394 20.5757C20.4032 20.5671 20.4128 20.5592 20.422 20.5511M20.423 20.5531L20.422 20.5511M20.423 20.5531C20.6581 20.356 20.9161 20.3153 21.0779 20.3133L21.078 20.3114C20.9422 20.3078 20.6686 20.3344 20.422 20.5511M20.423 20.5531L20.422 20.5511M10.3303 5.77755C14.9156 2.59066 19.8985 1.23464 25.3157 1.68752C26.3604 5.13897 26.5336 8.29416 25.8776 11.1782L25.7291 11.776C24.8041 15.1861 23.0362 18.1018 20.4116 20.5401L20.1032 20.827L20.1031 20.8289C17.4321 22.9713 14.4275 24.2906 11.0742 24.7938C7.91153 25.245 4.58334 24.7351 1.06728 23.2136C1.2544 17.7986 3.18305 13.0157 6.87795 8.83068C7.12705 8.55197 7.66621 8.03608 8.53785 7.26037L8.5388 7.26138C9.43522 6.48749 10.0236 6.0015 10.3303 5.77755Z" fill="white" stroke="#EDEDED" stroke-width="2"/>
</svg>
