<svg width="26" height="24" viewBox="0 0 26 24" fill="none" xmlns="http://www.w3.org/2000/svg">
<path d="M6.61606 18.7728C6.6051 18.7622 6.59504 18.7504 6.58331 18.74C6.58646 18.7427 6.58957 18.7454 6.59271 18.7481C6.60151 18.7557 6.6096 18.764 6.61794 18.7717M6.61606 18.7728L6.61794 18.7717M6.61606 18.7728C6.83942 18.989 6.90526 19.2448 6.92279 19.4055L6.92474 19.4053C6.91465 19.2684 6.86053 18.9965 6.61794 18.7717M6.61606 18.7728L6.61794 18.7717M19.0372 8.37529C22.3232 12.2281 23.9993 16.6 24.0899 21.5242C20.8632 22.8533 17.8562 23.2566 15.0447 22.7879C11.8726 22.2576 9.07246 20.9192 6.62697 18.7613L6.32023 18.49C4.29141 16.4128 2.88379 14.0115 2.09194 11.2704L1.93762 10.7C1.24645 7.89337 1.40118 4.84923 2.44871 1.54166C7.35334 1.23666 11.8441 2.5559 15.9574 5.51908L15.9583 5.51803C16.2313 5.71788 16.7434 6.15866 17.5235 6.87721C18.3164 7.62993 18.8101 8.12243 19.0363 8.37633L19.0372 8.37529Z" fill="white" stroke="#EDEDED" stroke-width="2"/>
</svg>
