<svg width="38" height="32" viewBox="0 0 38 32" fill="none" xmlns="http://www.w3.org/2000/svg">
<path d="M21.6896 27.0043C15.1814 30.3325 8.51348 31.1571 1.64269 29.5003C0.912758 24.5561 1.34017 20.1957 2.88484 16.3853L3.04262 16.0083C4.88564 11.7157 7.7113 8.22904 11.5334 5.53239L11.8713 5.29381L11.8742 5.27745C15.4838 3.07944 19.3304 1.89815 23.4316 1.73055L24.2786 1.71041C28.4662 1.71112 32.6709 3.03778 36.9094 5.74686C35.6545 12.8839 32.2535 18.8456 26.6808 23.6639L26.6816 23.6651C26.296 23.9937 25.4987 24.5693 24.2474 25.4123L24.2482 25.4135C22.9719 26.2457 22.1282 26.7673 21.6896 27.0043ZM10.8438 5.65624C11.0214 5.67842 11.3032 5.66915 11.5754 5.47922C11.5703 5.48305 11.5656 5.4877 11.5604 5.49148C11.2768 5.6957 10.9846 5.68367 10.8433 5.65912L10.8438 5.65624Z" fill="white" stroke="#EDEDED" stroke-width="2"/>
</svg>
