<svg width="124" height="121" viewBox="0 0 124 121" fill="none" xmlns="http://www.w3.org/2000/svg">
<rect width="124" height="121" rx="60.5" fill="#101014"/>
<g clip-path="url(#clip0_8574_2641)">
<path d="M71.1001 52.7001C78.5001 59.6001 89.3001 61.0001 98.5001 57.0001C98.5668 57.0001 98.6335 56.9668 98.7001 56.9001C98.7668 56.8335 98.8335 56.7668 98.9001 56.7001C98.9668 56.6335 99.0001 56.5335 99.0001 56.4001C99.0001 56.3335 99.0001 56.2668 99.0001 56.2001C98.7335 46.8001 95.5001 39.2001 89.3001 33.4001C83.1001 27.5335 75.3335 24.7668 66.0001 25.1001C65.8668 25.1001 65.7668 25.1001 65.7001 25.1001C65.6335 25.1668 65.5668 25.2335 65.5001 25.3001C65.3668 25.3001 65.3001 25.3668 65.3001 25.5001C65.2335 25.5668 65.1668 25.6335 65.1001 25.7001C61.8001 35.1001 63.8001 45.8001 71.1001 52.7001Z" stroke="#7F3924" stroke-width="2"/>
<path d="M52.4001 52.6C59.6001 45.8 61.6001 35.3 58.3001 26C58.3001 25.9334 58.2668 25.8667 58.2001 25.8C58.1335 25.7334 58.0668 25.6667 58.0001 25.6C57.9335 25.5334 57.8668 25.4667 57.8001 25.4C57.7335 25.4 57.6335 25.4 57.5001 25.4C48.3001 25.0667 40.6335 27.7667 34.5001 33.5C28.3668 39.2334 25.1668 46.7 24.9001 55.9C24.9001 56.0334 24.9335 56.1334 25.0001 56.2C25.0001 56.2667 25.0335 56.3334 25.1001 56.4C25.1668 56.4667 25.2335 56.5334 25.3001 56.6C25.3668 56.6667 25.4335 56.7334 25.5001 56.8C34.5001 60.7 45.1001 59.4 52.4001 52.6Z" stroke="#808080" stroke-width="2"/>
<path d="M52.4 68.0001C45.2 61.2001 34.6 59.8001 25.5 63.7001C25.4333 63.7001 25.3667 63.7335 25.3 63.8001C25.2333 63.8668 25.1667 63.9335 25.1 64.0001C25.0333 64.0668 25 64.1668 25 64.3001C25 64.3668 25 64.4335 25 64.5001C25.2 73.7001 28.3667 81.2001 34.5 87.0001C40.6333 92.7335 48.3 95.4668 57.5 95.2001C57.5667 95.1335 57.6333 95.1001 57.7 95.1001C57.8333 95.1001 57.9333 95.0668 58 95.0001C58.0667 94.9335 58.1333 94.8668 58.2 94.8001C58.2667 94.7335 58.3 94.6668 58.3 94.6001C61.6 85.3001 59.7 74.8001 52.4 68.0001Z" stroke="#808080" stroke-width="2"/>
<path d="M71.2002 68C63.9002 74.9 62.0002 85.3 65.3002 94.6C65.3002 94.6666 65.3335 94.7333 65.4002 94.8C65.4668 94.8666 65.5335 94.9333 65.6002 95C65.6668 95.0666 65.7335 95.1 65.8002 95.1C65.9335 95.1666 66.0335 95.2 66.1002 95.2C75.3002 95.4666 82.9668 92.7333 89.1002 87C95.1668 81.2666 98.3335 73.8 98.6002 64.6C98.6002 64.4666 98.5668 64.3666 98.5002 64.3C98.5002 64.2333 98.4669 64.1666 98.4002 64.1C98.4002 63.9666 98.3669 63.9 98.3002 63.9C98.2335 63.8333 98.1335 63.7666 98.0002 63.7C89.0002 59.9 78.4002 61.2 71.2002 68Z" stroke="#808080" stroke-width="2"/>
<path d="M89.3001 33.4001C95.5001 39.2001 98.7335 46.8001 99.0001 56.2001C99.0001 56.2668 99.0001 56.3335 99.0001 56.4001C99.0001 56.5335 98.9668 56.6335 98.9001 56.7001C98.8335 56.7668 98.7668 56.8335 98.7001 56.9001C98.6335 56.9668 98.5668 57.0001 98.5001 57.0001C89.3001 61.0001 78.5001 59.6001 71.1001 52.7001C63.8001 45.8001 61.8001 35.1001 65.1001 25.7001C65.1668 25.6335 65.2335 25.5668 65.3001 25.5001C65.3001 25.3668 65.3668 25.3001 65.5001 25.3001C65.5668 25.2335 65.6335 25.1668 65.7001 25.1001C65.7668 25.1001 65.8668 25.1001 66.0001 25.1001C75.3335 24.7668 83.1001 27.5335 89.3001 33.4001Z" fill="#FD7247"/>
<path d="M52.4 52.6C45.0999 59.4 34.5 60.7 25.5 56.8C25.4333 56.7334 25.3666 56.6667 25.3 56.6C25.2333 56.5334 25.1666 56.4667 25.1 56.4C25.0333 56.3334 25 56.2667 25 56.2C24.9333 56.1334 24.9333 56.0334 25 55.9C25.2 46.7 28.3666 39.2334 34.5 33.5C40.6333 27.7667 48.2999 25.0667 57.5 25.4C57.6333 25.4 57.7333 25.4 57.7999 25.4C57.8666 25.4667 57.9333 25.5334 58 25.6C58.0666 25.6667 58.1333 25.7334 58.2 25.8C58.2666 25.8667 58.2999 25.9334 58.2999 26C61.5999 35.3 59.5999 45.8 52.4 52.6Z" fill="white"/>
<path d="M52.4 68.0001C59.7 74.8001 61.6 85.3001 58.3 94.6001C58.3 94.6668 58.2667 94.7335 58.2 94.8001C58.1333 94.8668 58.0667 94.9335 58 95.0001C57.9333 95.0668 57.8333 95.1001 57.7 95.1001C57.6333 95.1001 57.5667 95.1335 57.5 95.2001C48.3 95.4668 40.6333 92.7335 34.5 87.0001C28.3667 81.2001 25.2 73.7001 25 64.5001C25 64.4335 25 64.3668 25 64.3001C25 64.1668 25.0333 64.0668 25.1 64.0001C25.1667 63.9335 25.2333 63.8668 25.3 63.8001C25.3667 63.7335 25.4333 63.7001 25.5 63.7001C34.6 59.8001 45.2 61.2001 52.4 68.0001Z" fill="white"/>
<path d="M71.1999 68C78.3999 61.2 88.9999 59.9 97.9999 63.7C98.1333 63.7666 98.2333 63.8333 98.2999 63.9C98.3666 63.9 98.3999 63.9666 98.3999 64.1C98.4666 64.1666 98.4999 64.2333 98.4999 64.3C98.5666 64.3666 98.5999 64.4666 98.5999 64.6C98.3333 73.8 95.1666 81.2666 89.0999 87C82.9666 92.7333 75.2999 95.4666 66.0999 95.2C66.0333 95.2 65.9333 95.1666 65.7999 95.1C65.7333 95.1 65.6666 95.0666 65.5999 95C65.5333 94.9333 65.4666 94.8666 65.3999 94.8C65.3333 94.7333 65.2999 94.6666 65.2999 94.6C61.9999 85.3 63.8999 74.9 71.1999 68Z" fill="white"/>
</g>
<defs>
<clipPath id="clip0_8574_2641">
<rect width="76" height="73" fill="white" transform="translate(24 24)"/>
</clipPath>
</defs>
</svg>
